<svg display="none" width="0" height="0" version="1.1" xmlns="http://www.w3.org/2000/svg" xmlns:xlink="http://www.w3.org/1999/xlink">
  <defs>
    <symbol id="icon-captain-hat" viewBox="0 0 1024 1024"><title>captain-hat</title><path class="path1" d="M512.402 132.094c-200.233 0-378.078 75.086-490.2 191.264-40.968 38.667 6.166 133.247 111.91 211.974v51.3c3.386 2.498 12.423 8.961 26.912 17.782 18.513 11.505 46.070 26.178 80.42 40.66 17.097 7.397 36.171 14.059 56.462 20.592 20.429 6.111 42.161 11.858 64.92 16.51 11.349 2.477 23.037 4.22 34.818 6.214 11.867 1.364 23.803 3.401 35.99 4.126 6.067 0.501 12.169 0.993 18.28 1.494 6.136 0.224 12.28 0.448 18.434 0.664 12.325 0.699 24.71 0.208 37.078 0.104 12.385-0.026 24.736-1.123 37.052-1.624 12.282-1.087 24.51-2.399 36.628-3.702 12.048-1.916 24.046-3.573 35.818-5.644 11.712-2.434 23.277-4.842 34.652-7.224 11.272-2.891 22.346-5.74 33.186-8.528 10.78-3.047 21.222-6.369 31.458-9.424 10.305-2.857 19.91-6.844 29.43-10.098 9.459-3.4 18.668-6.532 27.204-10.304 17.21-7.198 33.16-13.474 46.822-20.128 13.792-6.361 25.909-11.773 35.472-17.046 19.454-9.96 30.57-15.646 30.57-15.646s-10.726 6.411-29.498 17.648c-9.313 5.783-21.146 11.816-34.644 18.936-6.801 3.444-13.818 7.595-21.646 11.082-7.794 3.556-15.993 7.285-24.546 11.186-8.484 4.074-17.659 7.526-27.084 11.272-9.485 3.59-19.073 7.923-29.378 11.142-10.227 3.409-20.688 7.111-31.502 10.546-10.944 2.986-22.122 6.059-33.48 9.166-11.513 2.529-23.223 5.102-35.082 7.708-11.919 2.218-24.090 4.039-36.302 6.102-12.29 1.467-24.71 2.934-37.19 4.16-12.523 0.639-25.071 1.924-37.672 2.028-12.601-0.026-25.202 0.337-37.734-0.492-6.275-0.293-12.531-0.588-18.754-0.89-6.223-0.57-12.42-1.138-18.6-1.708-12.368-0.872-24.494-3.064-36.542-4.592-11.954-2.14-23.821-4.040-35.326-6.672-23.122-4.773-44.966-11.522-65.464-18.34-20.343-7.276-39.399-14.636-56.462-22.654-34.298-15.613-60.949-32.401-79.022-44.734-13.775-9.495-22.348-16.593-25.678-19.458v26.488c0 209.813 170.103 278.566 379.924 278.566 209.83 0 379.942-68.753 379.942-278.566v-76.014c102.987-76.359 148.105-168.971 108.64-213.962-112.13-116.178-289.975-191.264-490.216-191.264zM134.112 586.846v-0.214c-0.97-0.716-1.64-1.222-1.64-1.222s0.605 0.546 1.64 1.436zM509.1 375.832c51.577 0 93.41 41.584 93.41 92.894 0 51.301-41.833 92.882-93.41 92.882-51.594 0-93.41-41.581-93.41-92.882 0-51.31 41.816-92.894 93.41-92.894zM509.108 402.43c-8.078 0-14.628 6.552-14.628 14.63 0 5.587 3.149 10.442 7.77 12.9v12.646h-15.268v6.732h15.268v57.142c-12.233-1.018-23.734-4.742-33.328-10.812l7.536-7.044-30.83-9.374 7.286 31.382 7.932-7.414c13.475 9.249 30.45 14.316 48.26 14.316 17.804 0 34.78-5.068 48.242-14.32l7.932 7.418 7.286-31.382-30.82 9.374 7.526 7.038c-9.597 6.076-21.111 9.805-33.342 10.82v-57.144h15.294v-6.732h-15.294v-12.634c4.626-2.454 7.782-7.316 7.782-12.912 0-8.078-6.543-14.63-14.604-14.63zM885.718 528.298c0 0-10.253 7.181-28.196 19.756-8.881 6.49-20.506 13.006-33.616 20.938-12.955 8.26-28.645 15.552-45.406 24.312-17.244 7.69-35.766 16.676-56.368 23.632-10.167 3.815-20.67 7.638-31.674 10.754-10.909 3.349-22.086 6.791-33.712 9.294-11.574 2.667-23.286 5.74-35.386 7.63-6.033 1.079-12.092 2.167-18.194 3.254-3.047 0.557-6.125 0.941-9.216 1.286s-6.194 0.651-9.288 1.052c-6.214 0.708-12.453 1.426-18.702 2.142-6.283 0.406-12.576 0.81-18.894 1.216-12.618 1.044-25.314 1.087-38.018 1.208-12.713 0.242-25.391-0.897-38.018-1.294-12.592-1.105-25.166-1.993-37.56-3.59-7.741-1.020-15.441-2.032-23.052-3.262-4.567-0.738-9.102-1.554-13.594-2.496-6.029-1.044-11.983-2.258-17.876-3.55s-11.724-2.663-17.502-4.018c-23.096-5.541-45.034-12.307-65.446-19.712-20.532-7.077-39.332-15.372-56.498-23.26-34.238-16.070-61.21-32.383-79.36-44.742-2.097-1.418-4.048-2.766-5.912-4.070-0.488-0.341-0.946-0.667-1.418-1-1.457-1.028-2.861-2.028-4.164-2.972-0.281-0.203-0.57-0.411-0.844-0.61-1.538-1.12-2.98-2.183-4.29-3.166-0.051-0.038-0.109-0.080-0.16-0.118-0.311-0.234-0.546-0.418-0.844-0.644-1.592-1.205-2.986-2.278-4.194-3.226-0.435-0.341-0.876-0.687-1.262-0.994-1.169-0.93-2.239-1.795-2.94-2.374 0 0-0.002 0-0.002 0v-0.376c0.004 0.002 0.014 0.008 0.018 0.010 0.29 0.176 0.552 0.326 0.93 0.552 1.047 0.628 2.461 1.455 4.254 2.49 0.974 0.562 1.923 1.105 3.104 1.772 0.652 0.368 1.197 0.68 1.914 1.080 1.98 1.105 4.262 2.353 6.712 3.674 1.13 0.609 2.261 1.215 3.494 1.868 0.553 0.293 1.083 0.577 1.656 0.878 1.66 0.873 3.411 1.779 5.242 2.72 0.37 0.19 0.688 0.361 1.064 0.554 19.333 10.038 47.52 23.182 82.19 36.456 6.531 2.411 13.277 4.855 20.23 7.282 2.318 0.809 4.66 1.616 7.024 2.42 4.727 1.607 9.544 3.2 14.452 4.764s9.905 3.099 14.988 4.59c20.291 6.18 42.015 11.392 64.558 16.234 22.561 4.807 46.141 8.174 70.134 10.97 11.988 1.424 24.157 2.139 36.326 3.080 12.212 0.233 24.46 1.227 36.716 0.856 12.256-0.060 24.511 0.094 36.706-0.812 6.102-0.319 12.187-0.639 18.246-0.958 6.042-0.63 12.073-1.261 18.080-1.882 12.031-1.036 23.847-2.926 35.576-4.626 11.772-1.424 23.182-4.038 34.488-6.256 11.367-1.959 22.242-5.205 33.048-7.76 10.849-2.434 21.249-5.602 31.356-8.778 10.141-3.047 20.013-6.041 29.334-9.614 9.39-3.4 18.557-6.473 27.214-9.804 8.579-3.573 16.796-7 24.598-10.254 3.927-1.623 7.75-3.184 11.47-4.712 3.634-1.718 7.154-3.393 10.58-4.998 13.567-6.654 25.902-11.659 35.37-17.036 19.436-10.029 30.534-15.76 30.534-15.76z"></path></symbol>
    <symbol id="icon-calendar" viewBox="0 0 1024 1024"><title>calendar</title><path class="path1" d="M767.282 9.057c-22.266 0-40.313 18.053-40.313 40.309v152.853c0.004 22.262 18.051 40.313 40.313 40.313h14.649c22.262 0 40.309-18.053 40.309-40.313v-152.853c0-22.256-18.047-40.309-40.309-40.309h-14.649zM250.231 10.055c-22.262 0-40.313 18.051-40.313 40.309v152.853c0 22.258 18.051 40.313 40.313 40.313h14.649c22.264 0 40.309-18.055 40.309-40.313v-152.853c0-22.258-18.045-40.309-40.309-40.309h-14.649zM65.532 91.976c-36.135 0-65.532 29.399-65.532 65.537v791.894c0 36.137 29.397 65.537 65.532 65.537h892.936c36.135 0 65.532-29.399 65.532-65.537v-791.894c0.004-36.135-29.397-65.537-65.532-65.537h-103.458v120.8c0 40.297-32.783 62.522-73.075 62.522h-14.649c-40.297 0-73.080-32.783-73.080-73.080v-110.242h-356.246v111.24c0 40.297-32.783 73.080-73.080 73.080h-14.649c-40.295 0-73.075-32.783-73.075-73.080v-111.24h-111.624zM65.532 351.388h892.948l0.033 598.015c-0.004 0-0.016 0.004-0.045 0.004h-892.931l-0.004-598.019zM655.105 432.84c-6.23 0.138-12.857 1.253-18.563 0.355-31.312 0.434-62.795-0.874-93.997 0.664-9.628 8.233-3.362 23.331-5.159 34.742 0.439 26.052-0.881 52.281 0.664 78.222 1.258 3.068 4.457 5.209 7.782 5.159 40.298-0.437 80.769 0.878 120.957-0.664 9.628-8.233 3.362-23.331 5.159-34.742-0.439-26.052 0.881-52.281-0.664-78.222-4.116-4.814-9.949-5.652-16.179-5.514zM847.141 432.84c-6.23 0.138-12.857 1.253-18.563 0.355-31.312 0.434-62.795-0.874-93.997 0.664-9.628 8.233-3.362 23.331-5.159 34.742 0.439 26.052-0.881 52.281 0.664 78.222 1.258 3.068 4.457 5.209 7.782 5.159 40.298-0.437 80.769 0.878 120.957-0.664 9.628-8.233 3.362-23.331 5.159-34.742-0.439-26.052 0.881-52.281-0.664-78.222-4.116-4.814-9.949-5.652-16.179-5.514zM271.042 599.648c-6.23 0.138-12.857 1.257-18.563 0.359-31.311 0.434-62.796-0.874-93.997 0.664-9.628 8.233-3.362 23.331-5.159 34.742 0.439 26.053-0.881 52.28 0.664 78.222 1.258 3.068 4.457 5.209 7.782 5.159 40.297-0.437 80.77 0.878 120.957-0.664 9.628-8.233 3.362-23.331 5.159-34.742-0.439-26.053 0.881-52.28-0.664-78.222-4.116-4.814-9.949-5.657-16.179-5.518zM463.074 599.648c-6.23 0.138-12.857 1.257-18.563 0.359-31.311 0.434-62.796-0.874-93.997 0.664-9.628 8.233-3.362 23.331-5.159 34.742 0.439 26.053-0.881 52.28 0.664 78.222 1.258 3.068 4.457 5.209 7.782 5.159 40.297-0.437 80.77 0.878 120.957-0.664 9.628-8.233 3.362-23.331 5.159-34.742-0.439-26.053 0.881-52.28-0.664-78.222-4.116-4.814-9.949-5.657-16.179-5.518zM655.105 599.648c-6.23 0.138-12.857 1.257-18.563 0.359-31.311 0.434-62.796-0.874-93.997 0.664-9.628 8.233-3.362 23.331-5.159 34.742 0.439 26.053-0.881 52.28 0.664 78.222 1.258 3.068 4.457 5.209 7.782 5.159 40.297-0.437 80.77 0.878 120.957-0.664 9.628-8.233 3.362-23.331 5.159-34.742-0.439-26.053 0.881-52.28-0.664-78.222-4.116-4.814-9.949-5.657-16.179-5.518zM847.141 599.648c-6.23 0.138-12.857 1.257-18.563 0.359-31.312 0.434-62.795-0.874-93.997 0.664-9.628 8.233-3.362 23.331-5.159 34.742 0.439 26.053-0.881 52.28 0.664 78.222 1.258 3.068 4.457 5.209 7.782 5.159 40.298-0.437 80.769 0.878 120.957-0.664 9.628-8.233 3.362-23.331 5.159-34.742-0.439-26.053 0.881-52.28-0.664-78.222-4.116-4.814-9.949-5.657-16.179-5.518zM203.79 766.713c-15.126 0.018-30.238 0.193-45.308 0.771-9.628 8.233-3.362 23.331-5.159 34.742 0.439 26.053-0.881 52.28 0.664 78.222 8.233 9.628 23.331 3.362 34.742 5.159 31.311-0.434 62.796 0.874 93.997-0.664 9.628-8.233 3.362-23.331 5.159-34.742-0.44-26.053 0.884-52.28-0.664-78.222-1.259-3.068-4.457-5.209-7.782-5.159-25.185 0.273-50.439-0.137-75.649-0.107zM395.821 766.713c-15.126 0.018-30.234 0.193-45.304 0.771-9.628 8.233-3.362 23.331-5.159 34.742 0.439 26.053-0.881 52.28 0.664 78.222 8.233 9.628 23.327 3.362 34.738 5.159 31.311-0.434 62.8 0.874 94.001-0.664 9.628-8.233 3.358-23.331 5.155-34.742-0.439-26.053 0.881-52.28-0.664-78.222-1.258-3.068-4.457-5.209-7.782-5.159-25.186 0.273-50.439-0.137-75.649-0.107zM587.857 766.713c-15.126 0.018-30.237 0.193-45.308 0.771-9.628 8.233-3.362 23.331-5.159 34.742 0.439 26.053-0.881 52.28 0.664 78.222 8.233 9.628 23.331 3.362 34.742 5.159 31.312-0.434 62.795 0.874 93.997-0.664 9.628-8.233 3.362-23.331 5.159-34.742-0.439-26.053 0.881-52.28-0.664-78.222-1.258-3.068-4.457-5.209-7.782-5.159-25.186 0.273-50.438-0.137-75.649-0.107zM779.885 766.713c-15.126 0.018-30.233 0.193-45.304 0.771-9.628 8.233-3.362 23.331-5.159 34.742 0.439 26.053-0.881 52.28 0.664 78.222 8.233 9.628 23.331 3.362 34.742 5.159 31.312-0.434 62.795 0.874 93.997-0.664 9.628-8.233 3.362-23.331 5.159-34.742-0.439-26.053 0.881-52.28-0.664-78.222-1.258-3.068-4.457-5.209-7.782-5.159-25.186 0.273-50.443-0.137-75.653-0.107z"></path></symbol>
    <symbol id="icon-message" viewBox="0 0 1024 1024"><title>message</title><path class="path1" d="M507.904 56.32c-275.456 0-499.712 200.704-499.712 446.464 0 106.496 41.984 207.872 117.76 287.744 1.024 13.312-4.096 27.648-19.456 53.248-15.36 23.552-16.384 53.248-5.12 77.824 11.264 25.6 34.816 41.984 62.464 45.056 2.048 0 10.24 1.024 23.552 1.024 35.84 0 98.304-6.144 152.576-44.032 54.272 17.408 110.592 37.888 167.936 37.888 275.456 0 499.712-211.968 499.712-458.752 0-245.76-224.256-446.464-499.712-446.464zM507.904 881.664c-65.536 0-128-25.6-183.296-49.152-43.008 49.152-108.544 55.296-137.216 55.296-10.24 0-15.36-1.024-15.36-1.024 36.864-59.392 35.84-93.184 27.648-135.168-69.632-64.512-117.76-152.576-117.76-248.832 0-202.752 193.536-372.736 425.984-372.736s424.96 169.984 424.96 372.736c0 202.752-192.512 378.88-424.96 378.88zM404.48 471.040c33.792 0 62.464-27.648 62.464-62.464 0-33.792-28.672-62.464-62.464-62.464-34.816 0-62.464 28.672-62.464 62.464 0 34.816 27.648 62.464 62.464 62.464zM612.352 346.112c-33.792 0-62.464 27.648-62.464 62.464 0 33.792 28.672 61.44 62.464 61.44 34.816 0 62.464-27.648 62.464-61.44 0-34.816-27.648-62.464-62.464-62.464zM506.88 718.848c104.448 0 167.936-47.104 167.936-164.864h-333.824c0 117.76 61.44 164.864 165.888 164.864z"></path></symbol>
    <symbol id="icon-close" viewBox="0 0 805 1024"><title>close</title><path class="path1" d="M741.714 755.429q0 22.857-16 38.857l-77.714 77.714q-16 16-38.857 16t-38.857-16l-168-168-168 168q-16 16-38.857 16t-38.857-16l-77.714-77.714q-16-16-16-38.857t16-38.857l168-168-168-168q-16-16-16-38.857t16-38.857l77.714-77.714q16-16 38.857-16t38.857 16l168 168 168-168q16-16 38.857-16t38.857 16l77.714 77.714q16 16 16 38.857t-16 38.857l-168 168 168 168q16 16 16 38.857z"></path></symbol>
    <symbol id="icon-bars" viewBox="0 0 1024 1024"><title>bars</title><path class="path1" d="M877.714 768v73.143q0 14.857-10.857 25.714t-25.714 10.857h-804.571q-14.857 0-25.714-10.857t-10.857-25.714v-73.143q0-14.857 10.857-25.714t25.714-10.857h804.571q14.857 0 25.714 10.857t10.857 25.714zM877.714 475.429v73.143q0 14.857-10.857 25.714t-25.714 10.857h-804.571q-14.857 0-25.714-10.857t-10.857-25.714v-73.143q0-14.857 10.857-25.714t25.714-10.857h804.571q14.857 0 25.714 10.857t10.857 25.714zM877.714 182.857v73.143q0 14.857-10.857 25.714t-25.714 10.857h-804.571q-14.857 0-25.714-10.857t-10.857-25.714v-73.143q0-14.857 10.857-25.714t25.714-10.857h804.571q14.857 0 25.714 10.857t10.857 25.714z"></path></symbol>
    <symbol id="icon-lock" viewBox="0 0 658 1024"><title>lock</title><path class="path1" d="M182.857 438.857h292.571v-109.714q0-60.571-42.857-103.429t-103.429-42.857-103.429 42.857-42.857 103.429v109.714zM658.286 493.714v329.143q0 22.857-16 38.857t-38.857 16h-548.571q-22.857 0-38.857-16t-16-38.857v-329.143q0-22.857 16-38.857t38.857-16h18.286v-109.714q0-105.143 75.429-180.571t180.571-75.429 180.571 75.429 75.429 180.571v109.714h18.286q22.857 0 38.857 16t16 38.857z"></path></symbol>
    <symbol id="icon-facebook-circle" viewBox="0 0 1024 1024"><title>facebook-circle</title><path class="path1" d="M512 20.48c-271.462 0-491.52 220.058-491.52 491.52s220.058 491.52 491.52 491.52 491.52-220.058 491.52-491.52-220.058-491.52-491.52-491.52zM628.429 360.141h-73.882c-8.755 0-18.483 11.52-18.483 26.829v53.35h92.416l-13.978 76.083h-78.438v228.403h-87.194v-228.403h-79.104v-76.083h79.104v-44.749c0-64.205 44.544-116.378 105.677-116.378h73.882v80.947z"></path></symbol>
    <symbol id="icon-twitter-circle" viewBox="0 0 1024 1024"><title>twitter-circle</title><path class="path1" d="M512 20.48c-271.462 0-491.52 220.058-491.52 491.52s220.058 491.52 491.52 491.52 491.52-220.058 491.52-491.52-220.058-491.52-491.52-491.52zM711.936 423.117c0.205 4.198 0.256 8.397 0.256 12.493 0 128-97.331 275.507-275.405 275.507-54.682 0-105.574-15.974-148.378-43.52 7.526 0.922 15.258 1.28 23.091 1.28 45.363 0 87.091-15.411 120.218-41.421-42.342-0.819-78.080-28.774-90.419-67.174 5.888 1.075 11.93 1.69 18.176 1.69 8.806 0 17.408-1.178 25.498-3.379-44.288-8.909-77.67-48.026-77.67-94.925v-1.178c13.056 7.219 28.006 11.622 43.878 12.134-26.010-17.408-43.059-47.002-43.059-80.64 0-17.715 4.762-34.406 13.107-48.691 47.77 58.573 119.040 97.075 199.526 101.222-1.69-7.117-2.509-14.49-2.509-22.118 0-53.402 43.315-96.819 96.819-96.819 27.802 0 52.992 11.776 70.656 30.618 22.067-4.403 42.752-12.39 61.44-23.501-7.219 22.579-22.528 41.574-42.547 53.606 19.61-2.406 38.246-7.578 55.603-15.309-12.954 19.405-29.389 36.506-48.282 50.125z"></path></symbol>
    <symbol id="icon-linkedin-circle" viewBox="0 0 1024 1024"><title>linkedin-circle</title><path class="path1" d="M512 20.48c-271.462 0-491.52 220.058-491.52 491.52s220.058 491.52 491.52 491.52 491.52-220.058 491.52-491.52-220.058-491.52-491.52-491.52zM391.68 715.725h-99.533v-320.307h99.533v320.307zM341.299 356.096c-31.437 0-51.763-22.272-51.763-49.818 0-28.109 20.941-49.715 53.043-49.715s51.763 21.606 52.378 49.715c0 27.546-20.275 49.818-53.658 49.818zM755.2 715.725h-99.533v-177.51c0-41.318-14.438-69.376-50.432-69.376-27.494 0-43.827 18.995-51.046 37.274-2.662 6.502-3.328 15.718-3.328 24.883v184.678h-99.584v-218.112c0-39.987-1.28-73.421-2.611-102.195h86.477l4.557 44.493h1.997c13.107-20.89 45.21-51.712 98.918-51.712 65.485 0 114.586 43.878 114.586 138.189v189.389z"></path></symbol>
    <symbol id="icon-google-circle" viewBox="0 0 1024 1024"><title>google-circle</title><path class="path1" d="M512 20.48c-271.462 0-491.52 220.058-491.52 491.52s220.058 491.52 491.52 491.52 491.52-220.058 491.52-491.52-220.058-491.52-491.52-491.52zM483.686 722.995c-30.874 15.002-64.102 16.589-76.954 16.589-2.458 0-3.84 0-3.84 0s-1.178 0-2.765 0c-20.070 0-119.962-4.608-119.962-95.59 0-89.395 108.8-96.41 142.131-96.41h0.87c-19.251-25.702-15.258-51.61-15.258-51.61-1.69 0.102-4.147 0.205-7.168 0.205-12.544 0-36.762-1.997-57.549-15.411-25.498-16.384-38.4-44.288-38.4-82.893 0-109.107 119.142-113.51 120.32-113.613h118.989v2.611c0 13.312-23.91 15.923-40.192 18.125-5.53 0.819-16.64 1.894-19.763 3.482 30.157 16.128 35.021 41.421 35.021 79.104 0 42.906-16.794 65.587-34.611 81.51-11.059 9.882-19.712 17.613-19.712 28.006 0 10.189 11.878 20.582 25.702 32.717 22.579 19.917 53.555 47.002 53.555 92.723 0 47.258-20.326 81.050-60.416 100.454zM742.4 512h-76.8v76.8h-51.2v-76.8h-76.8v-51.2h76.8v-76.8h51.2v76.8h76.8v51.2zM421.018 570.88c-2.662 0-5.325 0.102-8.038 0.307-22.733 1.69-43.725 10.189-58.88 24.013-15.053 13.619-22.733 30.822-21.658 48.179 2.304 36.403 41.37 57.702 88.832 54.323 46.694-3.379 77.824-30.31 75.571-66.714-2.15-34.202-31.898-60.109-75.827-60.109zM465.766 372.992c-12.39-43.52-32.358-56.422-63.386-56.422-3.328 0-6.707 0.512-9.933 1.382-13.466 3.84-24.166 15.053-30.106 31.744-6.093 16.896-6.451 34.509-1.229 54.579 9.472 35.891 34.97 61.901 60.672 61.901 3.379 0 6.758-0.41 9.933-1.382 28.109-7.885 45.722-50.79 34.048-91.802z"></path></symbol>
    <symbol id="icon-arrow-up" viewBox="0 0 1463 1024"><title>arrow-up</title><path class="path1" d="M731.429 0c0 0-731.429 731.282-731.429 731.282s0 292.571 0 292.571c0 0 731.429-731.282 731.429-731.282s731.429 731.282 731.429 731.282c0 0 0-292.571 0-292.571s-731.429-731.282-731.429-731.282z"></path></symbol>
    <symbol id="icon-arrow-down" viewBox="0 0 1463 1024"><title>arrow-down</title><path class="path1" d="M731.429 1024c0 0 731.429-731.282 731.429-731.282s0-292.571 0-292.571c0 0-731.429 731.282-731.429 731.282s-731.429-731.282-731.429-731.282c0 0 0 292.571 0 292.571s731.429 731.282 731.429 731.282z"></path></symbol>
    <symbol id="icon-footprint" viewBox="0 0 1024 1024"><title>footprint</title><path class="path1" d="M405.504 815.104l-220.16 63.488 27.648 60.416c12.288 40.96 43.008 71.68 80.896 84.992h91.136c64.512-23.552 100.352-92.16 80.896-157.696l-60.416-51.2zM391.168 398.336c-27.648-93.184-139.264-146.432-234.496-120.832-94.208 26.624-135.168 123.904-108.544 216.064l112.64 313.344 230.4-62.464v-346.112zM850.944 12.288c-96.256-20.48-180.224 39.936-200.704 134.144l1.024 345.088 229.376 48.128 107.52-319.488c20.48-95.232-40.96-187.392-137.216-207.872zM581.632 619.52c-15.36 69.632 29.696 138.24 100.352 153.6 71.68 15.36 142.336-28.672 157.696-98.304l21.504-62.464-224.256-48.128-55.296 55.296z"></path></symbol>
    <symbol id="icon-monitor" viewBox="0 0 1024 1024"><title>monitor</title><path class="path1" d="M896 96.256h-768c-62.464 0-128 57.344-128 128v447.488c0 70.656 65.536 128 128 128h768c62.464 0 128-57.344 128-128v-447.488c0-70.656-65.536-128-128-128zM960.512 671.744c0 35.84-32.768 64.512-64.512 64.512h-768c-31.744 0-63.488-28.672-63.488-64.512v-447.488c0-35.84 31.744-64.512 63.488-64.512h768c31.744 0 64.512 28.672 64.512 64.512v447.488zM320.512 927.744h384c0-19.456 0-63.488 0-63.488h-384v63.488z"></path></symbol>
    <symbol id="icon-live" viewBox="0 0 1024 1024"><title>live</title><path class="path1" d="M910.336 144.384h-796.672c-71.68 0-113.664 38.912-113.664 113.664v457.728c0 75.776 43.008 114.688 113.664 114.688h57.344v-57.344h-57.344c-33.792 0-56.32-20.48-56.32-57.344v-457.728c0-35.84 21.504-57.344 56.32-57.344h796.672c34.816 0 56.32 21.504 56.32 57.344v457.728c0 36.864-21.504 57.344-56.32 57.344h-57.344v57.344h57.344c71.68 0 113.664-38.912 113.664-114.688v-457.728c0-74.752-41.984-113.664-113.664-113.664zM739.328 773.12c0 0-113.664-57.344-113.664-57.344s-44.032-34.816-44.032-82.944l11.264-21.504 16.384-54.272c0 0 22.528-15.36 22.528-52.224 0-23.552-9.216-32.768-9.216-32.768s9.216-33.792 9.216-58.368c0-24.576-28.672-98.304-119.808-98.304-97.28 0-120.832 73.728-120.832 98.304s8.192 58.368 8.192 58.368-8.192 10.24-8.192 32.768c0 36.864 22.528 53.248 22.528 53.248l18.432 57.344 9.216 17.408c0 51.2-43.008 82.944-43.008 82.944s-112.64 57.344-113.664 57.344v57.344c0 10.24-7.168 53.248 0 57.344h454.656c8.192-4.096 0-47.104 0-57.344v-57.344z"></path></symbol>
    <symbol id="icon-folder" viewBox="0 0 1024 1024"><title>folder</title><path class="path1" d="M164 846c0 0 692 0 692 0s42 2 56-46c0 0 110-382 110-382s20-72-56-72c0 0-554 0-708 0-20 0-42 30-42 30s-72 432-72 432c0 0-4 38 20 38zM98 846c0 0-32-4-32-38 0 0-64-594-64-594s-2 30-2-12c0-42 34-36 34-36s282 0 282 0c42 0 34 38 34 38 0 32 40 36 40 36s492-2 492-2c36 0 30 38 30 38 0 32-32 34-32 34s-640 0-640 0c-82 0-70 72-70 72s-72 464-72 464z"></path></symbol>
    <symbol id="icon-video" viewBox="0 0 1024 1024"><title>video</title><path class="path1" d="M918 1022c0 0 0-38-36-40-6-2-42 2-44 42 0 0-508 0-652 0 0-42-38-40-38-40-44 0-34 46-46 40-38-20-38-78-38-78s0-866 0-866c0-68 56-78 76-78-20 2-36 18-36 40s18 40 40 40c0 0 2 0 2 0 22 0 40-18 40-40s-16-40-36-42c0 0 728 4 728 4s0 0 0 0c-24 0-42 18-42 40s18 42 42 42c0 0 0 0 0 0 24 0 42-20 42-42s-18-40-42-40c82 0 82 82 82 82s0 860 0 860c0 38-42 76-42 76zM144 490c-22 0-40 20-40 42s18 40 40 40c24 0 42-18 42-40s-18-42-42-42zM186 410c0 0 0-2 0-2 0-22-18-38-40-38s-40 16-40 38c0 0 0 2 0 2 0 22 18 42 40 42s40-20 40-42zM186 164c0-24-18-42-40-42s-40 18-40 42c0 0 0 2 0 2 0 22 18 40 40 40s40-18 40-40c0 0 0-2 0-2zM186 286c0-22-18-40-40-40s-40 18-40 40c0 0 0 2 0 2 0 22 18 40 40 40s40-18 40-40c0 0 0-2 0-2zM186 654c0-22-18-40-40-40 0 0-2 0-2 0-22 0-40 18-40 40 0 0 0 2 0 2 0 22 18 40 40 40 0 0 2 0 2 0 22 0 40-18 40-40 0 0 0-2 0-2zM146 738c0 0-2 0-2 0-22 0-40 18-40 40s18 42 40 42c0 0 2 0 2 0 22 0 40-20 40-42s-18-40-40-40zM186 900c0-22-18-40-40-40s-40 18-40 40c0 0 0 2 0 2 0 22 18 40 40 40s40-18 40-40c0 0 0-2 0-2zM796 124c0-22-18-40-40-40 0 0-488 0-488 0-22 0-40 18-40 40 0 0 0 328 0 328 0 22 18 40 40 40 0 0 488 0 488 0 22 0 40-18 40-40 0 0 0-328 0-328zM798 574c0-24-18-40-42-40 0 0-490 0-490 0-22 0-38 16-38 40 0 0 0 330 0 330 0 22 16 38 38 38 0 0 490 0 490 0 24 0 42-16 42-38 0 0 0-330 0-330zM878 490c-24 0-42 20-42 42s18 40 42 40c22 0 40-18 40-40s-18-42-40-42zM918 410c0 0 0-2 0-2 0-22-18-38-40-38s-40 16-40 38c0 0 0 2 0 2 0 22 18 42 40 42s40-20 40-42zM918 164c0-24-18-42-40-42s-40 18-40 42c0 0 0 2 0 2 0 22 18 40 40 40s40-18 40-40c0 0 0-2 0-2zM920 286c0-22-18-40-40-40s-40 18-40 40c0 0 0 2 0 2 0 22 18 40 40 40s40-18 40-40c0 0 0-2 0-2zM920 654c0-22-18-40-42-40 0 0 0 0 0 0-24 0-42 18-42 40 0 0 0 2 0 2 0 22 18 40 42 40 0 0 0 0 0 0 24 0 42-18 42-40 0 0 0-2 0-2zM880 738c0 0-4 0-4 0-22 0-40 18-40 40s18 42 40 42c0 0 4 0 4 0 22 0 40-20 40-42s-18-40-40-40zM920 900c0-22-18-40-42-40-22 0-40 18-40 40 0 0 0 2 0 2 0 22 18 40 40 40 24 0 42-18 42-40 0 0 0-2 0-2zM140 2c2-2 4-2 4-2s2 0 2 0 2 0 4 0c0 0-4 0-4 0s-2 0-6 2z"></path></symbol>
    <symbol id="icon-script" viewBox="0 0 1024 1024"><title>script</title><path class="path1" d="M918 1022c0 0 0-38-36-40-6-2-42 2-44 42 0 0-508 0-652 0 0-42-38-40-38-40-44 0-34 46-46 40-38-20-38-78-38-78s0-866 0-866c0-68 56-78 76-78-20 2-36 18-36 40s18 40 40 40c0 0 2 0 2 0 22 0 40-18 40-40s-16-40-36-42c0 0 728 4 728 4s0 0 0 0c-24 0-42 18-42 40s18 42 42 42c0 0 0 0 0 0 24 0 42-20 42-42s-18-40-42-40c82 0 82 82 82 82s0 860 0 860c0 38-42 76-42 76zM144 490c-22 0-40 20-40 42s18 40 40 40c24 0 42-18 42-40s-18-42-42-42zM186 410c0 0 0-2 0-2 0-22-18-38-40-38s-40 16-40 38c0 0 0 2 0 2 0 22 18 42 40 42s40-20 40-42zM186 164c0-24-18-42-40-42s-40 18-40 42c0 0 0 2 0 2 0 22 18 40 40 40s40-18 40-40c0 0 0-2 0-2zM186 286c0-22-18-40-40-40s-40 18-40 40c0 0 0 2 0 2 0 22 18 40 40 40s40-18 40-40c0 0 0-2 0-2zM186 654c0-22-18-40-40-40 0 0-2 0-2 0-22 0-40 18-40 40 0 0 0 2 0 2 0 22 18 40 40 40 0 0 2 0 2 0 22 0 40-18 40-40 0 0 0-2 0-2zM146 738c0 0-2 0-2 0-22 0-40 18-40 40s18 42 40 42c0 0 2 0 2 0 22 0 40-20 40-42s-18-40-40-40zM186 900c0-22-18-40-40-40s-40 18-40 40c0 0 0 2 0 2 0 22 18 40 40 40s40-18 40-40c0 0 0-2 0-2zM796 124c0-22-18-40-40-40 0 0-488 0-488 0-22 0-40 18-40 40 0 0 0 328 0 328 0 22 18 40 40 40 0 0 488 0 488 0 22 0 40-18 40-40 0 0 0-328 0-328zM798 574c0-24-18-40-42-40 0 0-490 0-490 0-22 0-38 16-38 40 0 0 0 330 0 330 0 22 16 38 38 38 0 0 490 0 490 0 24 0 42-16 42-38 0 0 0-330 0-330zM878 490c-24 0-42 20-42 42s18 40 42 40c22 0 40-18 40-40s-18-42-40-42zM918 410c0 0 0-2 0-2 0-22-18-38-40-38s-40 16-40 38c0 0 0 2 0 2 0 22 18 42 40 42s40-20 40-42zM918 164c0-24-18-42-40-42s-40 18-40 42c0 0 0 2 0 2 0 22 18 40 40 40s40-18 40-40c0 0 0-2 0-2zM920 286c0-22-18-40-40-40s-40 18-40 40c0 0 0 2 0 2 0 22 18 40 40 40s40-18 40-40c0 0 0-2 0-2zM920 654c0-22-18-40-42-40 0 0 0 0 0 0-24 0-42 18-42 40 0 0 0 2 0 2 0 22 18 40 42 40 0 0 0 0 0 0 24 0 42-18 42-40 0 0 0-2 0-2zM880 738c0 0-4 0-4 0-22 0-40 18-40 40s18 42 40 42c0 0 4 0 4 0 22 0 40-20 40-42s-18-40-40-40zM920 900c0-22-18-40-42-40-22 0-40 18-40 40 0 0 0 2 0 2 0 22 18 40 40 40 24 0 42-18 42-40 0 0 0-2 0-2zM562 844c0 0 0-56 0-56 16-2 30-6 40-14 8-8 14-16 14-26 0-2 0-6-2-8 0-2-2-4-2-6 0 0-2-2-4-4s-4-2-4-4c-2 0-4-2-8-4-2-2-4-2-6-4-16-10-24-26-24-50 0-16 6-30 18-42 10-10 26-16 44-16 20 0 36 8 50 22 12 14 20 34 20 62 0 90-46 142-136 150zM372 844c0 0 0-56 0-56 16-2 30-6 40-14s14-16 14-26c0-4 0-8-2-10-2-4-4-6-6-8s-6-4-10-6c-4-2-8-4-10-6-16-10-24-28-24-50 0-16 6-30 18-42 12-10 28-16 46-16 20 0 36 8 50 22 12 14 18 34 18 62 0 90-44 142-134 150zM600 270c0 6 0 8 2 12 2 2 4 4 6 6s4 4 10 6c4 2 6 4 8 4 16 12 24 28 24 50 0 16-6 28-18 38-10 10-26 16-44 16s-34-6-46-20c-14-14-20-34-20-58 0-88 44-136 130-144 0 0 0 52 0 52-16 2-28 8-38 14-10 8-14 16-14 24zM418 270c0 4 0 6 0 8 2 2 2 4 2 6 2 2 2 2 4 4s4 2 6 4c0 0 2 2 6 4 2 0 4 2 6 2 16 10 24 26 24 50 0 16-6 28-18 38-10 10-26 16-42 16-20 0-36-6-48-20s-20-34-20-58c0-88 44-136 132-144 0 0 0 52 0 52-16 2-30 8-38 14-10 8-14 16-14 24zM140 2c2-2 4-2 4-2s2 0 2 0 2 0 4 0c0 0-4 0-4 0s-2 0-6 2z"></path></symbol>
    <symbol id="icon-presentation" viewBox="0 0 1024 1024"><title>presentation</title><path class="path1" d="M888 132c0 0-752 0-752 0-18 0-34-14-34-34 0-18 16-32 34-32 0 0 344 0 344 0s0-34 0-34c0-18 14-32 34-32 18 0 32 14 32 32 0 0 0 34 0 34s342 0 342 0c18 0 34 14 34 32 0 20-16 34-34 34zM888 660c0 0-294 0-294 0s-64 0-64 0c0 0-34 0-34 0s-64 0-64 0c0 0-296 0-296 0s0-494 0-494c0 0 752 0 752 0s0 494 0 494zM234 398c0 72 58 132 130 132s132-60 132-132c0 0-132 0-132 0s0-134 0-134c-72 0-130 60-130 134zM594 264c0 0-32 0-32 0s0 34 0 34c0 0 32 0 32 0s0-34 0-34zM594 330c0 0-32 0-32 0s0 34 0 34c0 0 32 0 32 0s0-34 0-34zM594 396c0 0-32 0-32 0s0 34 0 34c0 0 32 0 32 0s0-34 0-34zM594 462c0 0-32 0-32 0s0 34 0 34c0 0 32 0 32 0s0-34 0-34zM594 528c0 0-32 0-32 0s0 34 0 34c0 0 32 0 32 0s0-34 0-34zM790 264c0 0-162 0-162 0s0 34 0 34c0 0 162 0 162 0s0-34 0-34zM790 330c0 0-162 0-162 0s0 34 0 34c0 0 162 0 162 0s0-34 0-34zM790 396c0 0-162 0-162 0s0 34 0 34c0 0 162 0 162 0s0-34 0-34zM790 462c0 0-162 0-162 0s0 34 0 34c0 0 162 0 162 0s0-34 0-34zM790 528c0 0-162 0-162 0s0 34 0 34c0 0 162 0 162 0s0-34 0-34zM422 826c0 0 74 0 74 0s0-166 0-166c0 0 34 0 34 0s0 166 0 166c0 0 72 0 72 0s-72-166-72-166c0 0 64 0 64 0s132 298 132 298c0 0-66 0-66 0s-44-100-44-100c0 0-86 0-86 0s0 166 0 166c0 0-34 0-34 0s0-166 0-166c0 0-88 0-88 0s-44 100-44 100c0 0-66 0-66 0s134-298 134-298c0 0 64 0 64 0s-74 166-74 166z"></path></symbol>
    <symbol id="icon-pack" viewBox="0 0 1024 1024"><title>pack</title><path class="path1" d="M692 1024c0 0-504 0-504 0-40 0-72-32-72-72 0 0 0-876 0-876 0-40 32-74 72-74 0 0 284 0 284 0s-34-2-34 36c0 38 36 36 36 36s42 2 42 2c0 0 30-10 30-36 0-32-22-38-22-38s306 0 306 0c0 0 78 2 78 80 0 0 0 724 0 724s-216 218-216 218zM404 768c0 20 18 38 38 38 0 0 70 0 70 0 20 0 36-18 36-38 0 0-2-180-2-180 0-20-18-38-38-38 0 0-66 0-66 0-20 0-38 18-38 38 0 0 0 180 0 180zM366 404c0 20 16 38 36 38 0 0 38 0 38 0 20 0 36-18 36-38 0 0 0 0 0 0 0-20-16-36-36-36 0 0-38 0-38 0-20 0-36 16-36 36 0 0 0 0 0 0zM402 294c0 0 36 0 36 0 20 0 38-16 38-36s-18-36-38-36c0 0-36 0-36 0-20 0-36 16-36 36s16 36 36 36zM476 110c0-20-16-34-36-34 0 0-38 0-38 0-20 0-36 14-36 34 0 0 0 2 0 2 0 20 16 36 36 36 0 0 38 0 38 0 20 0 36-16 36-36 0 0 0-2 0-2zM544 184c0-20-16-36-36-36 0 0-32 0-32 0-20 0-38 16-38 36 0 0 0 2 0 2 0 22 18 36 38 36 0 0 32 0 32 0 20 0 36-14 36-36 0 0 0-2 0-2zM510 294c0 0-36 0-36 0-20 0-36 16-36 36s16 38 36 38c0 0 36 0 36 0 20 0 36-18 36-38s-16-36-36-36zM512 442c0 0-36 0-36 0-20 0-38 16-38 36s18 36 38 36c0 0 36 0 36 0 20 0 36-16 36-36s-16-36-36-36zM842 770c0 0-152 0-152 0s-34 0-34 36c0 0 0 146 0 146s-6 56 26 24c0 0 174-178 174-178s40-30-14-28zM512 770c0 0-74 0-74 0s0-38 0-38c0 0 74 0 74 0s0 38 0 38z"></path></symbol>
    <symbol id="icon-checked" viewBox="0 0 1396 1024"><title>checked</title><path class="path1" d="M1320.96 275.456c0 0-684.777 684.684-684.777 684.684-31.465 31.558-73.076 47.569-114.688 47.569-37.329 0-74.566-12.753-105.007-38.633 0 0-360.355-306.455-360.355-306.455-68.236-57.903-76.521-160.303-18.525-228.538 58.089-68.143 160.489-76.521 228.631-18.432 0 0 246.412 209.455 246.412 209.455s578.932-579.025 578.932-579.025c63.302-63.302 165.981-63.302 229.376 0 63.302 63.395 63.302 165.981 0 229.376z"></path></symbol>
    <symbol id="icon-play-simple" viewBox="0 0 922 1024"><title>play-simple</title><path class="path1" d="M921.6 512c0 0-921.6 512-921.6 512s0-1024 0-1024c0 0 921.6 512 921.6 512z"></path></symbol>
    <symbol id="icon-reload" viewBox="0 0 1344 1024"><title>reload</title><path class="path1" d="M1104.32 849.024c0 0-238.4-336-238.4-336s174.4-1.344 174.4-1.344c-2.752-201.536-170.432-367.808-370.304-366.272-40.64 0.384-78.976 8.96-115.392 21.696 0 0-0.064 0.128-0.064 0.128-23.616 8.256-45.568 19.712-66.688 32.512 0 0-85.056-120.448-85.056-120.448 77.248-49.28 168.192-78.592 266.048-79.36 279.296-2.24 504.384 230.208 507.712 511.872 0 0 168 0.064 168 0.064s-240.256 337.152-240.256 337.152zM303.744 512.32c2.688 201.536 170.432 367.808 370.24 366.272 40.64-0.384 78.976-8.96 115.392-21.76 0 0 0.064-0.064 0.064-0.064 22.976-8.064 44.352-19.072 64.896-31.36 0 0 83.968 121.088 83.968 121.088-76.608 48.192-166.528 76.736-263.168 77.568-279.296 2.176-504.384-231.552-507.648-513.216 0 0-168.064-0.064-168.064-0.064s240.256-335.808 240.256-335.808c0 0 238.4 336 238.4 336s-174.336 1.344-174.336 1.344z"></path></symbol>
    <symbol id="icon-star" viewBox="0 0 1024 1024"><title>star</title><path class="path1" d="M511.561 0.219c0 0 121.271 399.36 121.271 399.36s390.875-0.512 390.875-0.512c0 0-321.097 233.253-321.097 233.253s121.271 390.656 121.271 390.656c0 0-311.442-241.152-311.442-241.152s-313.417 241.957-313.417 241.957c0 0 122.953-390.949 122.953-390.949s-321.682-232.448-321.682-232.448c0 0 390.875-0.512 390.875-0.512s120.393-399.653 120.393-399.653z"></path></symbol>
    <symbol id="icon-lock" viewBox="0 0 853 1024"><title>lock</title><path class="path1" d="M761.572 428.203c0 0-36.466 0-36.466 0s0-128.512 0-128.512c0-165.547-153.714-300.146-319.829-300.146-165.945 0-278.414 134.599-278.414 300.146 0 0 0 128.512 0 128.512s-35.1 0-35.1 0c-50.688 0-91.705 40.96-91.705 91.477 0 0 0 413.355 0 413.355 0 50.46 41.017 91.42 91.705 91.42 0 0 669.81 0 669.81 0 50.745 0 91.762-40.96 91.762-91.42 0 0 0-413.355 0-413.355 0-50.517-41.017-91.477-91.762-91.477zM597.106 428.203c0 0-342.244 0-342.244 0s0-128.512 0-128.512c0-95.915 54.272-173.909 150.414-173.909 96.256 0 191.829 77.995 191.829 173.909 0 0 0 128.512 0 128.512z"></path></symbol>
    <symbol id="icon-tags" viewBox="0 0 1434 1024"><title>tags</title><path class="path1" d="M880.742 981.094c0 0-50.688 0-50.688 0s0-270.029 0-270.029c0 0 314.573-215.552 314.573-215.552s0-5.837 0-5.837c0 0-314.573-215.45-314.573-215.45s0-274.022 0-274.022c0 0 50.688 0 50.688 0s508.314 369.562 508.314 369.562c0 0 0 241.766 0 241.766s-508.314 369.562-508.314 369.562zM1.126 611.533c0 0 0-241.766 0-241.766s506.982-369.562 506.982-369.562c0 0 50.79 0 50.79 0s0 270.131 0 270.131c0 0-313.958 215.45-313.958 215.45s0 5.837 0 5.837c0 0 313.958 217.498 313.958 217.498s0 271.974 0 271.974c0 0-50.79 0-50.79 0s-506.982-369.562-506.982-369.562z"></path></symbol>
    <symbol id="icon-search" viewBox="0 0 1024 1024"><title>search</title><path class="path1" d="M406 598q80 0 136-56t56-136-56-136-136-56-136 56-56 136 56 136 136 56zM662 598l212 212-64 64-212-212v-34l-12-12q-76 66-180 66-116 0-197-80t-81-196 81-197 197-81 196 81 80 197q0 104-66 180l12 12h34z"></path></symbol>

    <symbol id="icon-facebook" viewBox="0 0 585 1024"><title>facebook</title><path class="path1" d="M548 6.857v150.857h-89.714q-49.143 0-66.286 20.571t-17.143 61.714v108h167.429l-22.286 169.143h-145.143v433.714h-174.857v-433.714h-145.714v-169.143h145.714v-124.571q0-106.286 59.429-164.857t158.286-58.571q84 0 130.286 6.857z"></path></symbol>
    <symbol id="icon-twitter" viewBox="0 0 951 1024"><title>twitter</title><path class="path1" d="M925.714 233.143q-38.286 56-92.571 95.429 0.571 8 0.571 24 0 74.286-21.714 148.286t-66 142-105.429 120.286-147.429 83.429-184.571 31.143q-154.857 0-283.429-82.857 20 2.286 44.571 2.286 128.571 0 229.143-78.857-60-1.143-107.429-36.857t-65.143-91.143q18.857 2.857 34.857 2.857 24.571 0 48.571-6.286-64-13.143-106-63.714t-42-117.429v-2.286q38.857 21.714 83.429 23.429-37.714-25.143-60-65.714t-22.286-88q0-50.286 25.143-93.143 69.143 85.143 168.286 136.286t212.286 56.857q-4.571-21.714-4.571-42.286 0-76.571 54-130.571t130.571-54q80 0 134.857 58.286 62.286-12 117.143-44.571-21.143 65.714-81.143 101.714 53.143-5.714 106.286-28.571z"></path></symbol>
    <symbol id="icon-google" viewBox="0 0 951 1024"><title>google</title><path class="path1" d="M420 454.857q0 20.571 18.286 40.286t44.286 38.857 51.714 42 44 59.429 18.286 81.143q0 51.429-27.429 98.857-41.143 69.714-120.571 102.571t-170.286 32.857q-75.429 0-140.857-23.714t-98-78.571q-21.143-34.286-21.143-74.857 0-46.286 25.429-85.714t67.714-65.714q74.857-46.857 230.857-57.143-18.286-24-27.143-42.286t-8.857-41.714q0-20.571 12-48.571-26.286 2.286-38.857 2.286-84.571 0-142.571-55.143t-58-139.714q0-46.857 20.571-90.857t56.571-74.857q44-37.714 104.286-56t124.286-18.286h238.857l-78.857 50.286h-74.857q42.286 36 64 76t21.714 91.429q0 41.143-14 74t-33.714 53.143-39.714 37.143-34 35.143-14 37.714zM336.571 400q21.714 0 44.571-9.429t37.714-24.857q30.286-32.571 30.286-90.857 0-33.143-9.714-71.429t-27.714-74-48.286-59.143-66.857-23.429q-24 0-47.143 11.143t-37.429 30q-26.857 33.714-26.857 91.429 0 26.286 5.714 55.714t18 58.857 29.714 52.857 42.857 38.286 55.143 14.857zM337.714 898.857q33.143 0 63.714-7.429t56.571-22.286 41.714-41.714 15.714-62.286q0-14.286-4-28t-8.286-24-15.429-23.714-16.857-20-22-19.714-20.857-16.571-23.714-17.143-20.857-14.857q-9.143-1.143-27.429-1.143-30.286 0-60 4t-61.429 14.286-55.429 26.286-39.143 42.571-15.429 60.286q0 40 20 70.571t52.286 47.429 68 25.143 72.857 8.286zM800.571 398.286h121.714v61.714h-121.714v125.143h-60v-125.143h-121.143v-61.714h121.143v-124h60v124z"></path></symbol>
    <symbol id="icon-linkedin" viewBox="0 0 1024 1024"><title>linkedin</title><path class="path1" d="M199.429 357.143v566.286h-188.571v-566.286h188.571zM211.429 182.286q0.571 41.714-28.857 69.714t-77.429 28h-1.143q-46.857 0-75.429-28t-28.571-69.714q0-42.286 29.429-70t76.857-27.714 76 27.714 29.143 70zM877.714 598.857v324.571h-188v-302.857q0-60-23.143-94t-72.286-34q-36 0-60.286 19.714t-36.286 48.857q-6.286 17.143-6.286 46.286v316h-188q1.143-228 1.143-369.714t-0.571-169.143l-0.571-27.429h188v82.286h-1.143q11.429-18.286 23.429-32t32.286-29.714 49.714-24.857 65.429-8.857q97.714 0 157.143 64.857t59.429 190z"></path></symbol>
    <symbol id="icon-facebook-circle" viewBox="0 0 1024 1024"><title>facebook-circle</title><path class="path1" d="M512 20.48c-271.462 0-491.52 220.058-491.52 491.52s220.058 491.52 491.52 491.52 491.52-220.058 491.52-491.52-220.058-491.52-491.52-491.52zM628.429 360.141h-73.882c-8.755 0-18.483 11.52-18.483 26.829v53.35h92.416l-13.978 76.083h-78.438v228.403h-87.194v-228.403h-79.104v-76.083h79.104v-44.749c0-64.205 44.544-116.378 105.677-116.378h73.882v80.947z"></path></symbol>
    <symbol id="icon-twitter-circle" viewBox="0 0 1024 1024"><title>twitter-circle</title><path class="path1" d="M512 20.48c-271.462 0-491.52 220.058-491.52 491.52s220.058 491.52 491.52 491.52 491.52-220.058 491.52-491.52-220.058-491.52-491.52-491.52zM711.936 423.117c0.205 4.198 0.256 8.397 0.256 12.493 0 128-97.331 275.507-275.405 275.507-54.682 0-105.574-15.974-148.378-43.52 7.526 0.922 15.258 1.28 23.091 1.28 45.363 0 87.091-15.411 120.218-41.421-42.342-0.819-78.080-28.774-90.419-67.174 5.888 1.075 11.93 1.69 18.176 1.69 8.806 0 17.408-1.178 25.498-3.379-44.288-8.909-77.67-48.026-77.67-94.925v-1.178c13.056 7.219 28.006 11.622 43.878 12.134-26.010-17.408-43.059-47.002-43.059-80.64 0-17.715 4.762-34.406 13.107-48.691 47.77 58.573 119.040 97.075 199.526 101.222-1.69-7.117-2.509-14.49-2.509-22.118 0-53.402 43.315-96.819 96.819-96.819 27.802 0 52.992 11.776 70.656 30.618 22.067-4.403 42.752-12.39 61.44-23.501-7.219 22.579-22.528 41.574-42.547 53.606 19.61-2.406 38.246-7.578 55.603-15.309-12.954 19.405-29.389 36.506-48.282 50.125z"></path></symbol>
    <symbol id="icon-linkedin-circle" viewBox="0 0 1024 1024"><title>linkedin-circle</title><path class="path1" d="M512 20.48c-271.462 0-491.52 220.058-491.52 491.52s220.058 491.52 491.52 491.52 491.52-220.058 491.52-491.52-220.058-491.52-491.52-491.52zM391.68 715.725h-99.533v-320.307h99.533v320.307zM341.299 356.096c-31.437 0-51.763-22.272-51.763-49.818 0-28.109 20.941-49.715 53.043-49.715s51.763 21.606 52.378 49.715c0 27.546-20.275 49.818-53.658 49.818zM755.2 715.725h-99.533v-177.51c0-41.318-14.438-69.376-50.432-69.376-27.494 0-43.827 18.995-51.046 37.274-2.662 6.502-3.328 15.718-3.328 24.883v184.678h-99.584v-218.112c0-39.987-1.28-73.421-2.611-102.195h86.477l4.557 44.493h1.997c13.107-20.89 45.21-51.712 98.918-51.712 65.485 0 114.586 43.878 114.586 138.189v189.389z"></path></symbol>
    <symbol id="icon-google-circle" viewBox="0 0 1024 1024"><title>google-circle</title><path class="path1" d="M512 20.48c-271.462 0-491.52 220.058-491.52 491.52s220.058 491.52 491.52 491.52 491.52-220.058 491.52-491.52-220.058-491.52-491.52-491.52zM483.686 722.995c-30.874 15.002-64.102 16.589-76.954 16.589-2.458 0-3.84 0-3.84 0s-1.178 0-2.765 0c-20.070 0-119.962-4.608-119.962-95.59 0-89.395 108.8-96.41 142.131-96.41h0.87c-19.251-25.702-15.258-51.61-15.258-51.61-1.69 0.102-4.147 0.205-7.168 0.205-12.544 0-36.762-1.997-57.549-15.411-25.498-16.384-38.4-44.288-38.4-82.893 0-109.107 119.142-113.51 120.32-113.613h118.989v2.611c0 13.312-23.91 15.923-40.192 18.125-5.53 0.819-16.64 1.894-19.763 3.482 30.157 16.128 35.021 41.421 35.021 79.104 0 42.906-16.794 65.587-34.611 81.51-11.059 9.882-19.712 17.613-19.712 28.006 0 10.189 11.878 20.582 25.702 32.717 22.579 19.917 53.555 47.002 53.555 92.723 0 47.258-20.326 81.050-60.416 100.454zM742.4 512h-76.8v76.8h-51.2v-76.8h-76.8v-51.2h76.8v-76.8h51.2v76.8h76.8v51.2zM421.018 570.88c-2.662 0-5.325 0.102-8.038 0.307-22.733 1.69-43.725 10.189-58.88 24.013-15.053 13.619-22.733 30.822-21.658 48.179 2.304 36.403 41.37 57.702 88.832 54.323 46.694-3.379 77.824-30.31 75.571-66.714-2.15-34.202-31.898-60.109-75.827-60.109zM465.766 372.992c-12.39-43.52-32.358-56.422-63.386-56.422-3.328 0-6.707 0.512-9.933 1.382-13.466 3.84-24.166 15.053-30.106 31.744-6.093 16.896-6.451 34.509-1.229 54.579 9.472 35.891 34.97 61.901 60.672 61.901 3.379 0 6.758-0.41 9.933-1.382 28.109-7.885 45.722-50.79 34.048-91.802z"></path></symbol>
  </defs>
</svg>